<svg width="80" height="80" viewBox="0 0 80 80" fill="none" xmlns="http://www.w3.org/2000/svg">
<rect width="80" height="80" rx="4" fill="#784192"/>
<path d="M24.1426 64.7128V46.2645C24.1426 45.4061 24.8253 44.7134 25.6713 44.7134H53.4701C54.3012 44.7134 54.9988 45.4061 54.9988 46.2645V64.6977" stroke="#F2F2F2" stroke-width="2" stroke-miterlimit="22.9256" stroke-linecap="round" stroke-linejoin="round"/>
<path d="M45.7334 28.8321C44.7773 32.3244 42.1592 34.8805 39.6882 34.9994C37.2025 34.8656 34.5844 32.3096 33.6284 28.7876L33.1577 28.8619C32.6282 28.951 32.1281 28.5646 32.0399 27.9999L31.5839 24.894C31.4956 24.3293 31.8634 23.8092 32.3929 23.72L32.7311 23.6606C32.5841 23.1702 32.4958 22.65 32.4958 22.1151V20.9708C32.4958 18.1769 34.6727 15.8735 37.3349 15.8735H37.9085C37.9085 15.7843 37.9085 15.6803 37.9379 15.606C38.2321 14.7738 40.2177 14.8035 42.3799 15.6655C42.8358 15.8438 43.2624 16.0518 43.6595 16.2748C45.4098 17.0475 46.6453 18.8605 46.6453 20.9708V22.1151C46.6453 22.65 46.5718 23.1702 46.41 23.6606L46.7483 23.72C47.2778 23.8092 47.6455 24.3293 47.5572 24.894L47.1013 27.9999C47.013 28.5646 46.5129 28.9362 45.9834 28.8619L45.7334 28.8321Z" stroke="#F2F2F2" stroke-width="2" stroke-miterlimit="22.9256" stroke-linecap="round" stroke-linejoin="round"/>
<path d="M16.1426 65.2841H63.5697" stroke="#F2F2F2" stroke-width="2" stroke-miterlimit="22.9256" stroke-linecap="round" stroke-linejoin="round"/>
<path d="M33.8566 36.7136L33.7534 36.7283C32.0284 37.9737 26.6767 39.1751 25.2466 39.4681C23.8755 39.7611 22.3718 40.4058 21.7083 41.8563L15.1919 55.8925C14.5875 57.2112 15.531 58.7789 16.3566 59.4675L22.5192 64.7128" stroke="#F2F2F2" stroke-width="2" stroke-miterlimit="22.9256" stroke-linecap="round" stroke-linejoin="round"/>
<path d="M45.2847 36.7136L45.3879 36.7283C47.1142 37.9743 52.4701 39.1764 53.9013 39.4696C55.2735 39.7627 56.7784 40.4077 57.4424 41.859L63.9492 55.9026C64.5541 57.2219 63.6098 58.7904 62.7835 59.4794L56.6161 64.7128" stroke="#F2F2F2" stroke-width="2" stroke-miterlimit="22.9256" stroke-linecap="round" stroke-linejoin="round"/>
<path d="M37.2852 24.1426V24.714" stroke="#F2F2F2" stroke-width="2" stroke-miterlimit="22.9256" stroke-linecap="round" stroke-linejoin="round"/>
<path d="M41.8564 24.1426V24.714" stroke="#F2F2F2" stroke-width="2" stroke-miterlimit="22.9256" stroke-linecap="round" stroke-linejoin="round"/>
<path d="M40.7134 29.2853C40.0352 30.0472 38.9929 30.0472 38.4277 29.2853" stroke="#F2F2F2" stroke-width="2" stroke-miterlimit="22.9256" stroke-linecap="round" stroke-linejoin="round"/>
<path d="M46.4277 22.9998C46.2391 22.0069 44.6863 19.4112 42.6691 18.9999C39.2733 22.9288 33.8748 17.6666 32.7139 22.5884" stroke="#F2F2F2" stroke-width="2" stroke-miterlimit="22.9256" stroke-linecap="round" stroke-linejoin="round"/>
</svg>
