<svg width="80" height="80" viewBox="0 0 80 80" fill="none" xmlns="http://www.w3.org/2000/svg">
<rect width="80" height="80" rx="4" fill="#784192"/>
<path d="M21.35 37.4134C21.4092 34.2052 20.861 30.892 21.8834 28.8831L17.4383 27.099C16.5641 26.7542 16.4752 25.4799 17.2457 25.1651L39.2488 15.8851C40.0193 15.5553 41.1158 15.6603 42.0048 16.0201L63.6079 25.0152C64.4821 25.375 64.5414 26.6493 63.8005 26.9491L41.7973 36.2291C41.0417 36.5439 39.9156 36.454 39.0414 36.0942L21.8834 28.8831L40.2564 25.4949" stroke="white" stroke-width="2" stroke-miterlimit="22.9256" stroke-linecap="round" stroke-linejoin="round"/>
<path d="M20.7654 44.6558C20.6785 51.1434 23.9924 54.5204 19.6511 58.6233L15.686 55.6017C18.4934 53.9576 20.6785 50.0769 20.7654 44.6558Z" stroke="white" stroke-width="2" stroke-miterlimit="22.9256" stroke-linecap="round" stroke-linejoin="round"/>
<path d="M54.4843 31.723V36.7615C54.4843 40.5556 48.466 43.6212 41.0342 43.6212" stroke="white" stroke-width="2" stroke-miterlimit="22.9256" stroke-linecap="round" stroke-linejoin="round"/>
<path d="M41.0344 43.6212C33.3167 43.6212 27.0669 40.5693 27.0669 36.8257V32.2403" stroke="white" stroke-width="2" stroke-miterlimit="22.9256" stroke-linecap="round" stroke-linejoin="round"/>
<path d="M21.1179 38.9654C22.4112 38.9654 23.4459 40.0152 23.4459 41.2933C23.4459 42.5714 22.396 43.6212 21.1179 43.6212C19.8399 43.6212 18.79 42.5714 18.79 41.2933C18.79 40.0152 19.8247 38.9654 21.1179 38.9654Z" stroke="white" stroke-width="2" stroke-miterlimit="22.9256" stroke-linecap="round" stroke-linejoin="round"/>
<path d="M28.0159 40C26.4377 42.4276 25.5146 45.3197 25.5146 48.4366C25.5146 56.9182 32.3485 63.7964 40.7754 63.7964C49.2023 63.7964 56.0361 56.9182 56.0361 48.4366C56.0361 45.3197 55.113 42.4276 53.5349 40" stroke="white" stroke-width="2" stroke-miterlimit="22.9256" stroke-linecap="round" stroke-linejoin="round"/>
<path d="M41.0342 63.7964V44.6558" stroke="white" stroke-width="2" stroke-miterlimit="22.9256" stroke-linecap="round" stroke-linejoin="round"/>
<path d="M25.5146 48.7943H56.0361" stroke="white" stroke-width="2" stroke-miterlimit="22.9256" stroke-linecap="round" stroke-linejoin="round"/>
<path d="M52.4148 57.5887C49.899 55.4159 45.622 53.9675 40.7679 53.9675C35.9286 53.9675 31.6516 55.4017 29.1357 57.5745" stroke="white" stroke-width="2" stroke-miterlimit="22.9256" stroke-linecap="round" stroke-linejoin="round"/>
<path d="M33.9122 43.6212C33.487 45.2364 33.2744 46.9264 33.2744 48.6912C33.2744 54.9875 36.1515 60.5361 40.5168 63.7964" stroke="white" stroke-width="2" stroke-miterlimit="22.9256" stroke-linecap="round" stroke-linejoin="round"/>
<path d="M48.0802 43.6212C48.5357 45.2454 48.7939 46.9738 48.7939 48.747C48.7939 55.02 45.7113 60.5481 41.0342 63.7964" stroke="white" stroke-width="2" stroke-miterlimit="22.9256" stroke-linecap="round" stroke-linejoin="round"/>
</svg>
