<svg width="80" height="80" viewBox="0 0 80 80" fill="none" xmlns="http://www.w3.org/2000/svg">
<rect width="80" height="80" rx="4" fill="#784192"/>
<path d="M48.7141 53.6341C47.999 44.084 53.2781 40.6904 53.4043 40.6252C53.4043 40.6252 55.6968 43.5619 58.0944 44.3016C62.3429 45.6068 67.685 47.3907 67.5588 51.785C67.5168 52.9379 74.5625 37.6013 61.5226 36.2091C58.4099 35.8828 58.1365 33.2288 56.4329 33.3811C45.2439 34.3817 43.4141 47.2819 48.7141 53.6341Z" stroke="white" stroke-width="2" stroke-miterlimit="22.9256" stroke-linecap="round" stroke-linejoin="round"/>
<path d="M69.8395 49.8142C69.4067 51.1562 68.8007 52.4323 68.0432 53.4003C68.0865 52.8503 68.1081 52.3003 68.1081 51.7282C68.1081 47.2841 62.7408 45.48 58.3691 44.16C55.9018 43.412 53.5428 40.4419 53.5428 40.4419C53.5428 40.4419 48.63 43.478 48.63 51.7282C48.63 52.3663 48.6517 53.0043 48.695 53.5983C47.8509 52.5423 47.1367 51.3542 46.6389 50.1002C46.4441 50.3862 46.3359 50.7602 46.3359 51.2662C46.3359 52.0363 46.6822 53.7523 47.0068 54.5223C47.3748 55.3364 47.9591 55.7984 48.5218 55.7984C48.6733 55.7984 48.8248 55.7764 48.9763 55.7104C49.6256 59.1425 51.1405 61.6946 53.4563 63.3666C55.6638 64.9507 56.5728 65.4127 58.3474 65.4127C60.1221 65.4127 61.0311 64.9507 63.2386 63.3666C65.5543 61.7166 67.0693 59.1425 67.7186 55.7104C67.8701 55.7544 68.0216 55.7984 68.1731 55.7984C68.7358 55.7984 69.3417 55.3364 69.688 54.5223C70.0127 53.7743 70.3589 52.0363 70.3589 51.2662C70.4022 50.5622 70.1858 50.1002 69.8395 49.8142Z" stroke="white" stroke-width="2" stroke-miterlimit="22.9256" stroke-linecap="round" stroke-linejoin="round"/>
<path d="M59.9009 58.1385C58.8408 59.0428 57.2114 59.0428 56.328 58.1385M54.8164 50.3361V51.4297V50.3361ZM61.4125 50.3361V51.4297V50.3361Z" stroke="white" stroke-width="2" stroke-miterlimit="22.9256" stroke-linecap="round" stroke-linejoin="round"/>
<path d="M31.4356 55.4558C30.0561 60.5604 26.2784 64.2966 22.7129 64.4704C19.1049 64.2966 15.3272 60.5604 13.9689 55.4124L13.2898 55.521C12.5257 55.6513 11.8041 55.0865 11.6768 54.2611L11.0189 49.7212C10.8915 48.8958 11.4221 48.1355 12.1862 48.0052L12.6743 47.9183C12.4621 47.2015 12.3347 46.4412 12.3347 45.6593V43.9867C12.3347 39.903 15.4758 36.5361 19.3172 36.5361H20.1449C20.1449 36.4057 20.1449 36.2537 20.1873 36.1451C20.6118 34.9287 23.4769 34.9721 26.5967 36.232C27.2546 36.4926 27.8701 36.7967 28.4431 37.1226C30.9687 38.2521 32.7515 40.9022 32.7515 43.9867V45.6593C32.7515 46.4412 32.6453 47.2015 32.4119 47.9183L32.9 48.0052C33.6641 48.1355 34.1946 48.8958 34.0673 49.7212L33.4094 54.2611C33.282 55.0865 32.5605 55.6296 31.7964 55.521L31.4356 55.4558Z" stroke="white" stroke-width="2" stroke-miterlimit="22.9256" stroke-linecap="round" stroke-linejoin="round"/>
<path d="M19.0093 48.4514V49.8649" stroke="white" stroke-width="2" stroke-miterlimit="22.9256" stroke-linecap="round" stroke-linejoin="round"/>
<path d="M26.0767 48.4514V49.8649" stroke="white" stroke-width="2" stroke-miterlimit="22.9256" stroke-linecap="round" stroke-linejoin="round"/>
<path d="M25.1344 56.932C23.8762 57.5602 21.9425 57.5602 20.894 56.932" stroke="white" stroke-width="2" stroke-miterlimit="22.9256" stroke-linecap="round" stroke-linejoin="round"/>
<path d="M33.1441 47.5091C32.8654 45.8718 30.5715 41.5914 27.5915 40.9131C22.5749 47.3922 14.5998 38.7144 12.8848 46.8308" stroke="white" stroke-width="2" stroke-miterlimit="22.9256" stroke-linecap="round" stroke-linejoin="round"/>
<path d="M44.0738 29.3726C43.1416 32.7149 40.6052 35.1515 38.1989 35.2593C35.7926 35.1299 33.2562 32.6933 32.324 29.3294L31.8688 29.3941C31.3485 29.4804 30.8715 29.1138 30.7848 28.5747L30.3296 25.599C30.2429 25.0599 30.6114 24.564 31.11 24.4777L31.4352 24.4346C31.2834 23.9602 31.2184 23.4642 31.2184 22.9683V21.8686C31.2184 19.1947 31.9772 17.1678 34.5569 17.1678L35.0338 15.0115C35.0338 14.9252 37.5052 15.3565 37.5269 15.2702C37.8087 14.4724 38.7192 16.0034 40.822 16.8228C41.2556 16.9953 41.6892 17.1894 42.0577 17.405C43.7486 18.1381 44.9626 19.8848 44.9626 21.8901V22.9899C44.9626 23.5074 44.8759 24.0033 44.7458 24.4562L45.071 24.4993C45.5913 24.5855 45.9382 25.0815 45.8515 25.6206L45.4179 28.5963C45.3312 29.1354 44.8542 29.5019 44.334 29.4157L44.0738 29.3726Z" stroke="white" stroke-width="2" stroke-miterlimit="22.9256" stroke-linecap="round" stroke-linejoin="round"/>
<path d="M35.4995 24.894V25.3652" stroke="white" stroke-width="2" stroke-miterlimit="22.9256" stroke-linecap="round" stroke-linejoin="round"/>
<path d="M40.6821 24.894V25.3652" stroke="white" stroke-width="2" stroke-miterlimit="22.9256" stroke-linecap="round" stroke-linejoin="round"/>
<path d="M38.3266 29.6056H37.8555" stroke="white" stroke-width="2" stroke-miterlimit="22.9256" stroke-linecap="round" stroke-linejoin="round"/>
</svg>
